<?xml version="1.0" encoding="UTF-8"?>
<svg id="Layer_2" data-name="Layer 2" xmlns="http://www.w3.org/2000/svg" xmlns:xlink="http://www.w3.org/1999/xlink" viewBox="0 0 445.52 23.64">
  <defs>
    <style>
      .cls-1 {
        fill: #114c82;
      }

      .cls-2 {
        fill: none;
      }

      .cls-3 {
        clip-path: url(#clippath);
      }
    </style>
    <clipPath id="clippath">
      <rect class="cls-2" width="445.52" height="23.64"/>
    </clipPath>
  </defs>
  <g id="Layer_1-2" data-name="Layer 1">
    <g class="cls-3">
      <path class="cls-1" d="M390.78,23.64c9.72,0,15.16-3.44,20.94-7.08,6.1-3.83,13.01-8.18,24.82-8.18,3.37,0,6.3.37,8.98.98-1.29-.76-2.54-1.54-3.73-2.27-5.76-3.64-11.23-7.08-20.94-7.08s-15.13,3.44-20.92,7.06c-6.1,3.86-13.01,8.21-24.85,8.21-3.37,0-6.32-.39-8.98-.98,1.29.76,2.51,1.51,3.71,2.27,5.78,3.64,11.23,7.08,20.96,7.08"/>
      <path class="cls-1" d="M299.25,23.64c9.72,0,15.16-3.44,20.94-7.08,6.1-3.83,13.01-8.18,24.82-8.18,3.37,0,6.3.37,8.98.98-1.29-.76-2.54-1.54-3.73-2.27-5.76-3.64-11.23-7.08-20.94-7.08s-15.13,3.44-20.92,7.06c-6.1,3.86-13.01,8.21-24.85,8.21-3.37,0-6.32-.39-8.98-.98,1.29.76,2.51,1.51,3.71,2.27,5.78,3.64,11.23,7.08,20.96,7.08"/>
      <path class="cls-1" d="M207.73,23.64c9.72,0,15.16-3.44,20.94-7.08,6.1-3.83,13.01-8.18,24.82-8.18,3.37,0,6.3.37,8.98.98-1.29-.76-2.54-1.54-3.73-2.27-5.76-3.64-11.23-7.08-20.94-7.08s-15.13,3.44-20.92,7.06c-6.1,3.86-13.01,8.21-24.85,8.21-3.37,0-6.32-.39-8.98-.98,1.29.76,2.51,1.51,3.71,2.27,5.78,3.64,11.23,7.08,20.96,7.08"/>
      <path class="cls-1" d="M116.2,23.64c9.72,0,15.16-3.44,20.94-7.08,6.1-3.83,13.01-8.18,24.82-8.18,3.37,0,6.3.37,8.98.98-1.29-.76-2.54-1.54-3.73-2.27-5.76-3.64-11.23-7.08-20.94-7.08s-15.13,3.44-20.92,7.06c-6.1,3.86-13.01,8.21-24.85,8.21-3.37,0-6.32-.39-8.98-.98,1.29.76,2.51,1.51,3.71,2.27,5.78,3.64,11.23,7.08,20.96,7.08"/>
      <path class="cls-1" d="M24.67,23.64c9.72,0,15.16-3.44,20.94-7.08,6.1-3.83,13.01-8.18,24.82-8.18,3.37,0,6.3.37,8.98.98-1.29-.76-2.54-1.54-3.73-2.27-5.76-3.64-11.23-7.08-20.94-7.08s-15.13,3.44-20.92,7.06c-6.1,3.86-13.01,8.21-24.84,8.21C5.61,15.27,2.66,14.87,0,14.29c1.29.76,2.51,1.51,3.71,2.27,5.78,3.64,11.23,7.08,20.96,7.08"/>
    </g>
  </g>
</svg>